<?xml version="1.0" encoding="UTF-8" standalone="no"?>
<svg
   version="1.1"
   x="0px"
   y="0px"
   viewBox="0 0 48 48"
   xml:space="preserve"
   id="svg12"
   sodipodi:docname="icon.svg"
   width="48"
   height="48"
   inkscape:export-filename="D:\code\GoodMemory\icon.png"
   inkscape:export-xdpi="1023.6888"
   inkscape:export-ydpi="1023.6888"
   inkscape:version="1.1 (c68e22c387, 2021-05-23)"
   xmlns:inkscape="http://www.inkscape.org/namespaces/inkscape"
   xmlns:sodipodi="http://sodipodi.sourceforge.net/DTD/sodipodi-0.dtd"
   xmlns="http://www.w3.org/2000/svg"
   xmlns:svg="http://www.w3.org/2000/svg"><defs
     id="defs16" /><sodipodi:namedview
     id="namedview14"
     pagecolor="#505050"
     bordercolor="#ffffff"
     borderopacity="1"
     inkscape:pageshadow="0"
     inkscape:pageopacity="0"
     inkscape:pagecheckerboard="1"
     showgrid="false"
     inkscape:zoom="11.093333"
     inkscape:cx="23.933294"
     inkscape:cy="24.023438"
     inkscape:window-width="1920"
     inkscape:window-height="1017"
     inkscape:window-x="1592"
     inkscape:window-y="32"
     inkscape:window-maximized="1"
     inkscape:current-layer="svg12" /><path
     d="m 20.13,19.015959 c 0.14,1.06 0.5,2.19 1.26,3.23 1.06,1.46 2.07,2.84 2.28,4.56 0.06,0.48 0.47,0.85 0.96,0.87 0.1,0.01 0.21,0.01 0.32,0.01 3.48,0 6.93,-2.26 8.47,-5.59 1.42,-3.09 1.36,-6.51 -0.15,-8.13 -0.24,-0.26 -0.61,-0.36 -0.96,-0.28 -0.35,0.09 -0.64,0.37 -0.74,0.71 -0.02,0.08 -0.05,0.25 -0.06,0.33 -0.04,1.11 -0.54,1.83 -1.46,2.14 -0.67,0.22 -1.62,-0.1 -2.08,-0.7 -0.21,-0.27 -0.83,-1.08 0.08,-2.53 l 0.16,-0.26 c 0.22,-0.33 0.47,-0.72 0.65,-1.15 1.22,-2.9399999 0.81,-5.8999999 -1.23,-8.8099999 -1,-1.42 -2.3,-2.44999996 -3.88,-3.06999996 -0.37,-0.15 -0.79,-0.06 -1.07,0.22 -0.28,0.28 -0.37,0.70999996 -0.22,1.07999996 0.46,1.14 0.57,2.19 0.35,3.23 -0.34,1.55 -1.18,2.9 -2.73,4.4 -0.33,0.32 -0.67,0.63 -1.01,0.9399999 -0.52,0.47 -1.05,0.96 -1.56,1.48 -2.7,2.8 -3.31,6.2 -1.79,10.11 0.67,1.72 1.7,3.03 3.15,4.02 0.36,0.25 0.84,0.23 1.18,-0.04 0.35,-0.27 0.47,-0.73 0.32,-1.14 -0.66,-1.73 -0.84,-3.1 -0.58,-4.44 0.08,-0.41 0.19,-0.81 0.34,-1.19 z"
     id="path2"
     style="fill:#ff4a00;fill-opacity:1" /><path
     d="m 8.03,34.975959 c -0.84,0 -1.53,0.69 -1.53,1.53 0,0.84 0.68,1.53 1.53,1.53 0.84,0 1.53,-0.68 1.53,-1.53 0,-0.84 -0.69,-1.53 -1.53,-1.53 z"
     id="path4"
     style="fill:#cccccc" /><path
     d="m 36.45,47.725959 h 6.4 c 0.55,0 1,-0.45 1,-1 v -3.02 H 47 c 0.55,0 1,-0.44 1,-1 v -12.4 c 0,-0.55 -0.45,-1 -1,-1 H 1 c -0.55,0 -1,0.45 -1,1 v 12.4 c 0,0.56 0.45,1 1,1 h 3.15 v 3.02 c 0,0.55 0.45,1 1,1 h 6.4 c 0.56,0 1,-0.45 1,-1 v -3.02 h 22.9 v 3.02 c 0,0.55 0.44,1 1,1 z m 5.53,-14.29 h 0.51 c 0.55,0 1,0.45 1,1 0,0.55 -0.45,1 -1,1 h -0.51 c -0.55,0 -1,-0.45 -1,-1 0,-0.56 0.45,-1 1,-1 z m 0,4.14 h 0.51 c 0.55,0 1,0.45 1,1 0,0.55 -0.45,1 -1,1 h -0.51 c -0.55,0 -1,-0.45 -1,-1 0,-0.55 0.45,-1 1,-1 z m -4.01,-4.14 h 0.51 c 0.55,0 1,0.45 1,1 0,0.55 -0.45,1 -1,1 h -0.51 c -0.55,0 -1,-0.45 -1,-1 0,-0.56 0.44,-1 1,-1 z m 0,4.14 h 0.51 c 0.55,0 1,0.45 1,1 0,0.55 -0.45,1 -1,1 h -0.51 c -0.55,0 -1,-0.45 -1,-1 0,-0.55 0.44,-1 1,-1 z m -4.02,-4.14 h 0.51 c 0.55,0 1,0.45 1,1 0,0.55 -0.45,1 -1,1 h -0.51 c -0.55,0 -1,-0.45 -1,-1 0,-0.56 0.44,-1 1,-1 z m -11.09,4.07 H 11.4 c -0.43,1.46 -1.77,2.53 -3.36,2.53 -1.95,0 -3.53,-1.58 -3.53,-3.53 0,-1.95 1.58,-3.53 3.53,-3.53 1.59,0 2.93,1.07 3.36,2.53 h 11.46 c 0.55,0 1,0.45 1,1 0,0.55 -0.45,1 -1,1 z m 7.57,2.07 h -0.51 c -0.55,0 -1,-0.45 -1,-1 0,-0.55 0.45,-1 1,-1 h 0.51 c 0.55,0 1,0.45 1,1 0,0.55 -0.44,1 -1,1 z m 0,-4.14 h -0.51 c -0.55,0 -1,-0.45 -1,-1 0,-0.55 0.45,-1 1,-1 h 0.51 c 0.55,0 1,0.45 1,1 0,0.55 -0.44,1 -1,1 z m 4.03,4.14 h -0.51 c -0.55,0 -1,-0.45 -1,-1 0,-0.55 0.45,-1 1,-1 h 0.51 c 0.55,0 1,0.45 1,1 0,0.55 -0.45,1 -1,1 z"
     id="path6"
     style="fill:#cccccc" /></svg>
